<svg width="16" height="16" viewBox="0 0 16 16" fill="none" xmlns="http://www.w3.org/2000/svg">
<rect width="16" height="16" fill="#F3F3F3"/>
<g id="Overfiew">
<rect width="1440" height="1100" transform="translate(-30 -146)" fill="white"/>
<g id="Side Menu">
<rect id="Rectangle 1" x="-30" y="-146" width="250.99" height="946" fill="url(#paint0_linear_10_2)"/>
<g id="sidebar / desktop" clip-path="url(#clip0_10_2)">
<rect width="255" height="1100" transform="translate(-30 -146)" fill="#363740"/>
<g id="sidebar / list / active">
<path id="sheet" opacity="0.08" d="M-29 -18H226V38H-29V-18Z" fill="#9FA2B4"/>
<g id="icon / sidebar / inactive / 1. overview">
<path id="Vector" opacity="0.4" d="M15.5232 8.94116H8.54412L13.1921 13.5891C13.3697 13.7667 13.6621 13.7812 13.8447 13.6091C14.9829 12.5367 15.7659 11.0912 15.9956 9.46616C16.035 9.18793 15.8041 8.94116 15.5232 8.94116ZM15.0576 7.03528C14.8153 3.52176 12.0076 0.714119 8.49412 0.471767C8.22589 0.453237 8 0.679413 8 0.948236V7.5294H14.5815C14.8503 7.5294 15.0762 7.30352 15.0576 7.03528ZM6.58824 8.94116V1.96206C6.58824 1.68118 6.34147 1.45029 6.06353 1.48971C2.55853 1.985 -0.120585 5.04705 0.00412089 8.71675C0.132356 12.4856 3.37736 15.5761 7.14794 15.5288C8.6303 15.5103 10 15.0326 11.1262 14.2338C11.3585 14.0691 11.3738 13.727 11.1724 13.5256L6.58824 8.94116Z" fill="#9FA2B4"/>
</g>
</g>
</g>
</g>
</g>
<defs>
<linearGradient id="paint0_linear_10_2" x1="-64.8873" y1="-240.336" x2="257.571" y2="962.787" gradientUnits="userSpaceOnUse">
<stop stop-color="#5F00D8"/>
<stop offset="1" stop-color="#B200F1"/>
</linearGradient>
<clipPath id="clip0_10_2">
<rect width="255" height="1100" fill="white" transform="translate(-30 -146)"/>
</clipPath>
</defs>
</svg>
